<?xml version="1.0" encoding="UTF-8"?>
<svg id="Calque_3" xmlns="http://www.w3.org/2000/svg" xmlns:xlink="http://www.w3.org/1999/xlink" version="1.1" viewBox="0 0 160 192">
  <!-- Generator: Adobe Illustrator 29.3.1, SVG Export Plug-In . SVG Version: 2.1.0 Build 151)  -->
  <defs>
    <style>
      .st0 {
        fill: url(#linear-gradient);
      }

      .st1 {
        opacity: .1;
      }

      .st2 {
        fill: #57d1e5;
      }

      .st3 {
        fill: #3b2d55;
      }

      .st4 {
        fill: #4d9bb6;
      }

      .st5 {
        fill: #93e1ef;
      }
    </style>
    <linearGradient id="linear-gradient" x1="89.4" y1="60" x2="22.8" y2="60" gradientUnits="userSpaceOnUse">
      <stop offset="0" stop-color="#cecad5"/>
      <stop offset=".7" stop-color="#fff"/>
      <stop offset="1" stop-color="#fff"/>
    </linearGradient>
  </defs>
  <g>
    <path class="st3" d="M136.2,182.5c-1,4.6-5.1,7.7-9.6,7.7s-1.1,0-1.6-.1h0s-1-.2-1-.2l.7-.7c1.5-1.5,2.5-3.2,3.1-5.1.3-1.1.5-2,.6-2.9,0-.4.1-.8.2-1.2l2-12.1c.9-5.5,1.7-11,2.5-16.2,0-.3-.2-.7-.5-.7-.3,0-.7.2-.8.5-1.1,5.2-2.2,10.6-3.3,16.1l-2.3,12.1c0,.4-.1.8-.2,1.2-.2,1-.4,2-.6,2.7-.6,2.1-2,3.9-3.8,5.2-.2.1-.4.3-.6.4-1,.6-2.2,1-3.4,1.2-1.2.2-2.4.2-3.6,0-1.3-.3-2.6-.8-3.7-1.6l-.4-.3.3-.4c.9-1.3,1.5-2.7,1.9-4.2.3-1.1.3-2.1.4-3.1,0-.4,0-.8.1-1.2l1.2-12.2c.5-5.6,1-11,1.4-16.3,0-.3-.2-.6-.5-.7-.2,0-.3,0-.5.1-.1.1-.2.3-.3.4-.8,5.2-1.5,10.6-2.2,16.2l-1.5,12.2c0,.4,0,.7-.1,1.1-.1,1-.2,2-.4,2.8-.2.9-.6,1.8-1.1,2.6-.7,1.2-1.7,2.2-2.8,3h0c0,.1-.1.2-.2.2-2,1.3-4.5,1.9-6.9,1.5-2.4-.3-4.6-1.6-6.1-3.5-.4-.4-.7-.9-1-1.5v-.2c-.1,0,0-.2,0-.2.2-.5.3-1.1.5-1.7.2-1.1.3-2.4.3-3.2v-6c.2-7.2.3-15.1.3-24.1,0-.3-.3-.6-.6-.6-.4,0-.7.3-.7.6-.5,9-.9,16.9-1.2,24.1l-.3,6.2c0,1,0,1.8-.3,2.6-.2,1-.5,1.8-.9,2.5,0,0,0,0,0,.1-1.7,3.1-5.2,5.1-8.6,5h-.1c-3.4,0-6.7-2-8.4-5,0,0,0-.1-.1-.2-.5-.8-.7-1.8-.9-2.5-.2-.9-.2-1.7-.3-2.8l-.3-6c-.3-7.6-.7-15.5-1.2-24.1,0-.3-.3-.6-.6-.6-.4,0-.6.3-.6.6,0,8.6,0,16.5.2,24.1v6c.1,1.3.2,2.4.4,3.2.1.6.3,1.2.5,1.7v.2c0,0,0,.2,0,.2-.3.5-.6,1-1,1.5-1.5,1.9-3.7,3.1-6.1,3.5-2.4.4-4.9-.2-6.9-1.5,0,0-.1,0-.2-.1h0c-1.1-.9-2.1-1.9-2.8-3.1-.5-.8-.8-1.7-1.1-2.6-.2-.8-.3-1.7-.4-2.7,0-.4,0-.8-.1-1.1l-1.5-12.2c-.7-5.6-1.5-11-2.2-16.2,0-.3-.3-.6-.7-.5-.2,0-.3,0-.4.2-.1.1-.2.3-.2.5.4,5.2.9,10.7,1.4,16.3l1.2,12.2c0,.4,0,.8.1,1.2,0,.9.2,1.9.4,3,.4,1.5,1,2.9,1.9,4.1l.3.4-.4.3c-1.1.8-2.4,1.4-3.7,1.7-1.2.3-2.4.3-3.6,0-1.2-.2-2.3-.6-3.4-1.2-.2-.1-.4-.3-.6-.4-1.8-1.3-3.2-3.1-3.8-5.1-.2-.7-.4-1.7-.6-2.7,0-.4-.1-.8-.2-1.2l-2.3-12.1c-1.1-5.5-2.2-10.9-3.3-16.1,0-.3-.4-.5-.7-.5-.4,0-.6.4-.5.7.8,5.3,1.6,10.7,2.5,16.2l2,12.1c0,.4.1.8.2,1.2.1.9.3,1.8.6,2.9.6,1.9,1.6,3.7,3.1,5.1l.8.8-1.1.2c-5.2.9-10.1-2.5-11.2-7.5,0-.4-3.6-17.1-7.8-37.9h0c3.6,24.3,5.9,38,6,38.2h0s0,0,0,0c0,.3.2.6.3,1,0,0,0,.2,0,.3h0c0,.3.2.5.2.7,0,.1.1.3.2.4,0,.2.2.3.2.5h0c0,.2.1.3.2.4,0,0,0,.1.1.2h0c.2.5.5.8.8,1.2h0c.1.2.3.4.5.6h0c.2.3.4.5.6.6h0s0,0,0,0h0s0,0,0,0c2.2,2,5,3.1,7.9,3.1s1.3,0,1.9-.2l1.1-.2,3.4-.5c.7.3,1.5.5,2.3.6.6.1,1.2.2,1.9.2s1.6,0,2.4-.3c1.5-.3,3.1-1,4.4-2l.4-.3.8-.6c.4.3.8.7,1.2,1h0c0,.1.2.2.3.2,1.9,1.2,4.1,1.9,6.4,1.9s1.1,0,1.7-.1c2.8-.4,5.4-1.9,7.2-4.1.4-.5.8-1,1.1-1.6,2,3.6,5.9,5.9,9.9,5.9h.1c0,0,.1,0,.2,0,4,0,7.9-2.3,9.9-5.9.3.6.7,1.1,1.1,1.6,1.8,2.2,4.4,3.7,7.2,4.1.5,0,1.1.1,1.7.1,2.3,0,4.6-.7,6.4-1.9,0,0,.2-.1.3-.2h0c.4-.3.8-.7,1.2-1l.8.6.4.3c1.3,1,2.9,1.6,4.4,2,.8.2,1.6.2,2.4.2s1.2,0,1.9-.1c1-.2,2-.4,2.9-.8l2.8.7,1,.2h0s0,0,0,0h0s0,0,0,0h0c.6.1,1.3.2,1.9.2,5.4,0,10.2-3.8,11.3-9.1,0-.2,2.4-14.5,6.2-39.4-4.2,21.2-7.9,38.6-8,39Z"/>
    <path class="st2" d="M79.9,0C34.8,0,3.4,28,3.4,68.2s6.8,47.7,12.5,76.5c4.1,20.7,7.7,37.5,7.8,37.9,1.1,5.1,6.1,8.4,11.2,7.5l1.1-.2-.8-.8c-1.5-1.5-2.5-3.2-3.1-5.1-.3-1.1-.5-2-.6-2.9,0-.4-.1-.8-.2-1.2l-2-12.1c-.9-5.5-1.7-10.9-2.5-16.2,0-.4.2-.7.5-.7.3,0,.7.2.7.5,1.1,5.2,2.2,10.6,3.3,16.1l2.3,12.1c0,.4.2.8.2,1.2.2,1,.4,1.9.6,2.7.6,2.1,2,3.9,3.8,5.1.2.1.4.3.6.4,1,.6,2.2,1,3.4,1.2,1.2.2,2.4.2,3.6,0,1.3-.3,2.6-.8,3.7-1.7l.4-.3-.3-.4c-.9-1.3-1.5-2.7-1.9-4.1-.3-1.1-.4-2.1-.4-3,0-.4,0-.8-.1-1.2l-1.2-12.2c-.5-5.6-1-11.1-1.4-16.3,0-.2,0-.3.2-.5.1-.1.3-.2.4-.2.3,0,.6.2.7.5.7,5.2,1.5,10.6,2.2,16.2l1.5,12.2c0,.4,0,.8.1,1.1.1,1,.2,2,.4,2.7.2.9.6,1.8,1.1,2.6.7,1.2,1.6,2.2,2.8,3h0c0,.1.1.2.2.2,2,1.3,4.5,1.9,6.9,1.5,2.4-.3,4.6-1.6,6.1-3.5.4-.4.7-.9,1-1.5v-.2c.1,0,0-.2,0-.2-.2-.5-.3-1.1-.5-1.7-.2-.8-.3-1.9-.3-3.2v-6c-.2-7.6-.3-15.5-.3-24.1,0-.4.3-.6.6-.6.3,0,.6.3.6.6.5,8.6.9,16.5,1.2,24.1l.3,6c0,1.1,0,1.9.3,2.8.2.7.4,1.6.9,2.5,0,0,0,0,.1.2,1.7,3.1,5,5,8.4,5h.1c3.4,0,6.9-1.9,8.6-5,0,0,0,0,0-.1.4-.7.7-1.5.9-2.5.2-.8.2-1.6.3-2.6l.3-6.2c.3-7.2.7-15.1,1.2-24.1,0-.4.3-.6.7-.6.3,0,.6.3.6.6,0,9,0,16.9-.2,24.1v6c-.1.8-.1,2.1-.4,3.2-.1.6-.3,1.2-.5,1.7v.2c0,0,0,.2,0,.2.3.5.6,1,1,1.5,1.5,1.9,3.8,3.1,6.1,3.5,2.4.4,4.9-.2,6.9-1.5,0,0,.1,0,.2-.1h0c1.1-.8,2.1-1.9,2.8-3.1.5-.8.8-1.7,1.1-2.6.2-.8.3-1.7.4-2.8,0-.4,0-.7.1-1.1l1.5-12.2c.7-5.5,1.5-11,2.2-16.2,0-.2.1-.3.3-.4.1-.1.3-.1.5-.1.3,0,.6.4.5.7-.4,5.2-.9,10.7-1.4,16.3l-1.2,12.2c0,.4,0,.8-.1,1.2,0,.9-.2,1.9-.4,3.1-.3,1.5-1,2.9-1.9,4.2l-.3.4.4.3c1.1.8,2.4,1.4,3.7,1.6,1.2.2,2.4.3,3.6,0,1.2-.2,2.3-.6,3.4-1.2.2-.1.4-.3.6-.4,1.8-1.3,3.2-3.1,3.8-5.2.2-.7.4-1.7.6-2.7,0-.4.1-.8.2-1.2l2.3-12.1c1.1-5.5,2.2-10.9,3.3-16.1,0-.3.4-.6.8-.5.3,0,.6.4.5.7-.8,5.3-1.6,10.7-2.5,16.2l-2,12.1c0,.4-.1.8-.2,1.2-.1.9-.3,1.9-.6,2.9-.6,1.9-1.6,3.7-3.1,5.1l-.7.7,1,.2h0c.5.1,1.1.1,1.6.1,4.5,0,8.6-3.1,9.6-7.7,0-.4,3.8-17.7,8-39,5.7-28.6,12.3-64.4,12.3-75.3C156.4,28,124.9,0,79.9,0Z"/>
  </g>
  <path class="st5" d="M25.3,18.6C11.4,30.6,3.4,47.8,3.4,68.2s20,113.4,20.2,114.3c.5,2,1.5,3.7,2.9,5-5-23.8-20.8-100.9-20.8-118.7S12.8,31.5,25.3,18.6"/>
  <g>
    <path class="st4" d="M59.4,29.4c-18.4,0-33.3,14.9-33.3,33.3s14.9,33.3,33.3,33.3,33.3-14.9,33.3-33.3-14.9-33.3-33.3-33.3"/>
    <path class="st0" d="M22.8,60c0,18.4,14.9,33.3,33.3,33.3s33.3-14.9,33.3-33.3-14.9-33.3-33.3-33.3-33.3,14.9-33.3,33.3"/>
    <path class="st3" d="M78.8,60.5c-.5,14-10.5,21.4-16.8,19.9-5.3-1.3-6-13.1-2.7-16.2,2.2-2,6.6-2.6,6.6-4.1,0-1.5-4.3-2.3-6.3-4.5-3.1-3.3-1.6-15.1,3.8-16,6.5-1.1,15.9,7,15.4,21"/>
    <g class="st1">
      <path class="st3" d="M72.2,42.8c2.9,3.6,4.9,9,4.7,15.6-.5,14-10.5,21.4-16.8,19.9-.4,0-.8-.3-1.2-.5.8,1.3,1.8,2.2,3.1,2.6,6.4,1.5,16.4-5.9,16.8-19.9.3-8.1-2.8-14.2-6.6-17.7"/>
    </g>
    <g>
      <path class="st4" d="M35.6,107c20.2,3,41.5-2.1,58.2-13.8,2.3-1.5,4.7,1.8,2.4,3.5-8.9,6-18.9,10.4-29.3,12.8-10.4,2.4-21.3,2.7-31.8,1.1-1-.1-1.6-1.1-1.5-2,.1-1,1-1.6,2-1.5"/>
      <path class="st4" d="M96.1,98.7c-.6-2.7-3-4.8-5.7-4.9-2.8-.2-2.6-4.3.2-4.3,2.3.3,4.4,1.5,5.9,3.2,1.3,1.2,4.1,6.7,1.1,7.1-.7,0-1.4-.4-1.5-1.1"/>
    </g>
    <path class="st3" d="M34.9,105.5c20.2,3,41.5-2.1,58.2-13.8,2.3-1.5,4.7,1.8,2.4,3.5-8.9,6-18.9,10.4-29.3,12.8-10.4,2.4-21.3,2.7-31.8,1.1-1-.1-1.6-1.1-1.5-2,.1-1,1-1.6,2-1.5"/>
    <path class="st3" d="M95.5,97.2c-.6-2.7-3-4.8-5.7-4.9-2.8-.2-2.6-4.3.2-4.3,2.3.3,4.4,1.5,5.9,3.2,1.3,1.2,4.1,6.7,1.1,7.1-.7,0-1.4-.4-1.5-1.1"/>
  </g>
</svg>